<svg width="18" height="15" viewBox="0 0 18 15" fill="none" xmlns="http://www.w3.org/2000/svg">
<path d="M15.9 1.20311C16.0066 1.09431 16.1339 1.00788 16.2744 0.948868C16.4148 0.88986 16.5656 0.859467 16.718 0.859467C16.8703 0.859467 17.0211 0.88986 17.1616 0.948868C17.302 1.00788 17.4293 1.09431 17.5359 1.20311C17.9828 1.65468 17.9891 2.38436 17.5516 2.84374L8.3125 13.7656C8.2076 13.8808 8.08031 13.9734 7.9384 14.0377C7.7965 14.102 7.64296 14.1367 7.4872 14.1396C7.33143 14.1425 7.17671 14.1136 7.03249 14.0547C6.88827 13.9958 6.75759 13.908 6.64844 13.7969L1.02656 8.09999C0.809745 7.87887 0.688293 7.58154 0.688293 7.27186C0.688293 6.96218 0.809745 6.66485 1.02656 6.44374C1.1332 6.33494 1.26047 6.2485 1.40092 6.18949C1.54137 6.13049 1.69219 6.10009 1.84453 6.10009C1.99688 6.10009 2.14769 6.13049 2.28814 6.18949C2.4286 6.2485 2.55587 6.33494 2.6625 6.44374L7.43125 11.2766L15.8687 1.23749C15.8785 1.22541 15.8889 1.21393 15.9 1.20311Z" fill="#74C69D"/>
</svg>
